/* XPM */
static char *wingdows[] = {
/* columns rows colors chars-per-pixel */
"32 27 18 1",
"  c black",
". c #191919",
"X c gray20",
"o c #007F7F",
"O c #7F0000",
"+ c #7F007F",
"@ c #4C4C4C",
"# c #666667",
"$ c gray50",
"% c blue",
"& c green",
"* c cyan",
"= c red",
"- c yellow",
"; c gray60",
": c #B2B2B2",
"> c gray80",
", c gray90",
/* pixels */
">>>>>>>>>>>>#..>>>>>>>>>>>>>>>>>",
">>>>>>>>>>>$X#;X:::>>>>>>>>>>>>>",
">>>>>>>>>>,@.#$;@:$X#>>>>>>>>>>>",
">>>>>>>>>>#.@;#$.;;$$$;>>>>>>>>>",
">>>>>>>>>$#$$#@@ $;;;$$#:>>>>>>>",
">>::>:$$>.$:#.$@.:$@$;;#$;:>>>>>",
">>;;>=OX:+X@@@;#@o**oo#;$@$;>>>>",
">>@$:;;;::@X;;.##@***$.@::##;:>>",
":::-:>>>>XX;;@$:#.o**oo;X#;;#@:>",
"&&&&&&&&;X;;@#@##.o*;$***o@#::;:",
">>:;:>::::@.X@@@@.**oo*****@#::>",
">,%%$%%%%:X.@@#@@ o*;*****o$:>>>",
">:;;;*;;;:;@..X:# #oo*****o;>>>>",
">>>;;>>>>>,;#oo@Xo##o****o$:>>>>",
">:-@@$$$$$::::*oX*o@o****#:>>>>>",
">>$@@XXX@@:$#*****#*;oo*$$:>>>>>",
">>>>>>>>>>:#@****o****$o@:>>>>>>",
">>>>>>>;:>#o****o$*****#$>>>>>>>",
">>>>>>;.#:;#$***#******X:>>>>>>>",
">>>>>>>;X.$>;o**o;****o$>>>>>>>>",
">>>>>>>>;$@$::;Xo****o@:>>>>>>>>",
">>>>>>>>>>;;$$:$o;***o$>>>>>>>>>",
">>>>>>>>>>>>;##;>;**;#>>>>>>>>>>",
">>>>>>>>>>>>>:@$;:;$o#>>>>>>>>>>",
">>>>>>>>>>>>>>>>@;;;$;>>>>>>>>>>",
">>>>>>>>>>>>>>>>>;#$:>>>>>>>>>>>",
">>>>>>>>>>>>>>>>>>:#@:>>>>>>>>>>"
};
